<?xml version="1.0" encoding="UTF-8"?>
<!DOCTYPE svg PUBLIC "-//W3C//DTD SVG 1.1//EN" "http://www.w3.org/Graphics/SVG/1.1/DTD/svg11.dtd">
<svg xmlns="http://www.w3.org/2000/svg" version="1.1" width="500px" height="500px" style="shape-rendering:geometricPrecision; text-rendering:geometricPrecision; image-rendering:optimizeQuality; fill-rule:evenodd; clip-rule:evenodd" xmlns:xlink="http://www.w3.org/1999/xlink">
<g><path style="opacity:1" fill="#b8d583" d="M 73.5,-0.5 C 78.1667,-0.5 82.8333,-0.5 87.5,-0.5C 90.0529,0.254922 92.7196,0.921588 95.5,1.5C 98.4083,2.81602 101.408,3.81602 104.5,4.5C 96.8096,4.16435 89.1429,3.49769 81.5,2.5C 78.5298,2.00279 75.8632,1.00279 73.5,-0.5 Z"/></g>
<g><path style="opacity:1" fill="#99c94f" d="M 67.5,-0.5 C 69.5,-0.5 71.5,-0.5 73.5,-0.5C 75.8632,1.00279 78.5298,2.00279 81.5,2.5C 89.1429,3.49769 96.8096,4.16435 104.5,4.5C 106.833,4.5 109.167,4.5 111.5,4.5C 115.547,6.25975 119.88,7.25975 124.5,7.5C 127.854,9.25759 131.521,10.2576 135.5,10.5C 141.857,13.4315 148.524,15.7649 155.5,17.5C 157.294,18.9252 158.961,20.5919 160.5,22.5C 167.345,23.0928 173.345,25.5928 178.5,30C 180.436,30.813 182.436,31.313 184.5,31.5C 185.492,31.3284 186.158,31.6618 186.5,32.5C 187.048,34.5323 188.381,35.5323 190.5,35.5C 190.714,37.1439 190.38,38.6439 189.5,40C 191.126,39.8047 192.793,39.8047 194.5,40C 196.736,42.2841 199.402,43.7841 202.5,44.5C 202.525,47.179 203.858,48.5123 206.5,48.5C 206.351,49.552 206.517,50.552 207,51.5C 208.586,52.376 210.086,53.376 211.5,54.5C 209.144,55.6539 208.977,56.9873 211,58.5C 212.444,56.8446 214.278,56.178 216.5,56.5C 216.068,61.6537 218.401,64.3204 223.5,64.5C 224.833,65.5 226.167,66.5 227.5,67.5C 227.62,71.6147 229.62,74.2814 233.5,75.5C 233.241,77.9893 234.241,79.656 236.5,80.5C 236.504,84.1739 237.504,87.5072 239.5,90.5C 240.243,94.5467 241.243,98.5467 242.5,102.5C 239.071,107.612 236.904,113.279 236,119.5C 235.773,125.704 235.273,131.871 234.5,138C 234.903,139.473 235.57,140.806 236.5,142C 236.017,146.34 234.851,150.507 233,154.5C 231.743,156.746 229.91,158.079 227.5,158.5C 227.167,160.5 226.833,162.5 226.5,164.5C 225.833,164.5 225.5,164.833 225.5,165.5C 222.454,165.183 220.787,166.516 220.5,169.5C 214.261,158.92 207.595,148.587 200.5,138.5C 201.75,138.423 202.583,137.756 203,136.5C 208.876,106.994 201.542,81.3278 181,59.5C 175.373,54.839 169.873,50.0057 164.5,45C 161.597,44.4314 159.597,42.7648 158.5,40C 139.306,27.4027 118.639,18.0694 96.5,12C 95.8333,11.3333 95.1667,10.6667 94.5,10C 85.3846,8.63693 76.3846,6.8036 67.5,4.5C 67.5,2.83333 67.5,1.16667 67.5,-0.5 Z"/></g>
<g><path style="opacity:0.161" fill="#e5f6cc" d="M 95.5,1.5 C 101.095,1.75363 106.428,2.75363 111.5,4.5C 109.167,4.5 106.833,4.5 104.5,4.5C 101.408,3.81602 98.4083,2.81602 95.5,1.5 Z"/></g>
<g><path style="opacity:1" fill="#a9d567" d="M 63.5,-0.5 C 64.8333,-0.5 66.1667,-0.5 67.5,-0.5C 67.5,1.16667 67.5,2.83333 67.5,4.5C 76.3846,6.8036 85.3846,8.63693 94.5,10C 95.1667,10.6667 95.8333,11.3333 96.5,12C 118.639,18.0694 139.306,27.4027 158.5,40C 159.597,42.7648 161.597,44.4314 164.5,45C 169.873,50.0057 175.373,54.839 181,59.5C 201.542,81.3278 208.876,106.994 203,136.5C 202.583,137.756 201.75,138.423 200.5,138.5C 195.213,132.913 191.213,126.579 188.5,119.5C 189.615,110.129 190.948,100.796 192.5,91.5C 193.252,85.3744 190.585,82.3744 184.5,82.5C 182.063,82.5984 180.063,83.5984 178.5,85.5C 177.498,92.8451 176.331,100.178 175,107.5C 166.521,98.0874 157.687,88.9208 148.5,80C 138.409,78.0917 135.242,81.925 139,91.5C 158.881,110.028 176.381,130.361 191.5,152.5C 192.684,154.854 192.518,157.187 191,159.5C 188.233,164.596 184.733,169.096 180.5,173C 171.259,181.12 160.926,187.454 149.5,192C 150.167,192.667 150.833,193.333 151.5,194C 159.493,194.5 167.493,194.666 175.5,194.5C 172.062,195.686 168.396,196.353 164.5,196.5C 159.519,195.835 154.519,195.502 149.5,195.5C 149.167,195.5 148.833,195.5 148.5,195.5C 142.07,192.287 135.403,189.62 128.5,187.5C 126.555,183.884 123.555,181.884 119.5,181.5C 117.623,178.27 114.956,176.27 111.5,175.5C 110.25,173.068 108.75,170.734 107,168.5C 106.184,167.177 105.017,166.511 103.5,166.5C 101.292,162.723 98.6254,159.39 95.5,156.5C 92.7329,151.299 90.2329,145.965 88,140.5C 86.9331,138.308 85.4331,136.642 83.5,135.5C 82.4779,128.33 79.8113,121.997 75.5,116.5C 75.746,111.537 74.4127,107.203 71.5,103.5C 70.2318,101.095 69.5651,98.4282 69.5,95.5C 69.6646,92.4816 69.498,89.4816 69,86.5C 67.4085,78.7231 65.5752,71.0565 63.5,63.5C 63.5,61.8333 63.5,60.1667 63.5,58.5C 63.5,41.8333 63.5,25.1667 63.5,8.5C 63.5,5.5 63.5,2.5 63.5,-0.5 Z"/></g>
<g><path style="opacity:0.09" fill="#e9fad6" d="M 111.5,4.5 C 116.12,4.74025 120.453,5.74025 124.5,7.5C 119.88,7.25975 115.547,6.25975 111.5,4.5 Z"/></g>
<g><path style="opacity:0.075" fill="#e8f8cc" d="M 124.5,7.5 C 128.479,7.74241 132.146,8.74241 135.5,10.5C 131.521,10.2576 127.854,9.25759 124.5,7.5 Z"/></g>
<g><path style="opacity:0.271" fill="#ddf0bc" d="M 135.5,10.5 C 142.671,11.6666 149.338,14 155.5,17.5C 148.524,15.7649 141.857,13.4315 135.5,10.5 Z"/></g>
<g><path style="opacity:0.843" fill="#bed98f" d="M 155.5,17.5 C 165.867,20.8508 175.533,25.5175 184.5,31.5C 182.436,31.313 180.436,30.813 178.5,30C 173.345,25.5928 167.345,23.0928 160.5,22.5C 158.961,20.5919 157.294,18.9252 155.5,17.5 Z"/></g>
<g><path style="opacity:0.604" fill="#deecc3" d="M 63.5,8.5 C 63.5,25.1667 63.5,41.8333 63.5,58.5C 62.7092,50.3298 62.0425,41.9964 61.5,33.5C 62.0425,25.0036 62.7092,16.6702 63.5,8.5 Z"/></g>
<g><path style="opacity:1" fill="#adce73" d="M 186.5,32.5 C 192.024,35.0921 197.024,38.4254 201.5,42.5C 201.833,43.1667 202.167,43.8333 202.5,44.5C 199.402,43.7841 196.736,42.2841 194.5,40C 192.793,39.8047 191.126,39.8047 189.5,40C 190.38,38.6439 190.714,37.1439 190.5,35.5C 188.381,35.5323 187.048,34.5323 186.5,32.5 Z"/></g>
<g><path style="opacity:0.047" fill="#e3f6cb" d="M 201.5,42.5 C 203.404,42.7376 204.738,43.7376 205.5,45.5C 204.391,45.4431 203.391,45.1098 202.5,44.5C 202.167,43.8333 201.833,43.1667 201.5,42.5 Z"/></g>
<g><path style="opacity:0.024" fill="#eff8c8" d="M 206.5,46.5 C 208.027,46.427 209.027,47.0937 209.5,48.5C 207.973,48.573 206.973,47.9063 206.5,46.5 Z"/></g>
<g><path style="opacity:1" fill="#a5cb66" d="M 202.5,44.5 C 203.391,45.1098 204.391,45.4431 205.5,45.5C 206.167,45.5 206.5,45.8333 206.5,46.5C 206.973,47.9063 207.973,48.573 209.5,48.5C 214.5,52.8333 219.167,57.5 223.5,62.5C 223.5,63.1667 223.5,63.8333 223.5,64.5C 218.401,64.3204 216.068,61.6537 216.5,56.5C 214.278,56.178 212.444,56.8446 211,58.5C 208.977,56.9873 209.144,55.6539 211.5,54.5C 210.086,53.376 208.586,52.376 207,51.5C 206.517,50.552 206.351,49.552 206.5,48.5C 203.858,48.5123 202.525,47.179 202.5,44.5 Z"/></g>
<g><path style="opacity:0.714" fill="#d7ebb0" d="M 223.5,62.5 C 225.587,63.5846 226.92,65.2512 227.5,67.5C 226.167,66.5 224.833,65.5 223.5,64.5C 223.5,63.8333 223.5,63.1667 223.5,62.5 Z"/></g>
<g><path style="opacity:1" fill="#99c94f" d="M 308.5,79.5 C 309.338,79.8417 309.672,80.5084 309.5,81.5C 310.256,85.767 311.589,89.767 313.5,93.5C 314.696,104.799 315.363,116.133 315.5,127.5C 315.167,130.833 314.833,134.167 314.5,137.5C 312.926,139.102 312.259,141.102 312.5,143.5C 309.734,147.371 306.734,151.038 303.5,154.5C 301.5,154.5 299.5,154.5 297.5,154.5C 297.5,155.833 297.5,157.167 297.5,158.5C 295.94,158.519 294.44,158.852 293,159.5C 291.322,157.718 289.489,157.385 287.5,158.5C 288.376,159.251 289.376,159.751 290.5,160C 290.167,160.333 289.833,160.667 289.5,161C 282.897,162.274 276.23,162.774 269.5,162.5C 270.955,153.941 273.788,145.941 278,138.5C 279.343,132.307 281.177,126.307 283.5,120.5C 283.61,118.626 282.944,117.126 281.5,116C 278.986,114.748 276.32,114.248 273.5,114.5C 274.209,113.596 275.209,113.263 276.5,113.5C 276.691,108.101 276.191,102.767 275,97.5C 272.762,90.6004 270.262,83.7671 267.5,77C 271.494,74.6919 274.494,71.5252 276.5,67.5C 279.167,67.5 281.833,67.5 284.5,67.5C 284.5,66.5 284.5,65.5 284.5,64.5C 287.313,64.9754 289.313,63.9754 290.5,61.5C 294.375,57.0633 297.209,57.73 299,63.5C 299.494,65.1341 299.66,66.8008 299.5,68.5C 300.675,68.281 301.675,68.6143 302.5,69.5C 304.023,73.2288 306.023,76.5621 308.5,79.5 Z"/></g>
<g><path style="opacity:1" fill="#a4cb65" d="M 290.5,61.5 C 289.313,63.9754 287.313,64.9754 284.5,64.5C 284.5,65.5 284.5,66.5 284.5,67.5C 281.833,67.5 279.167,67.5 276.5,67.5C 278.147,65.6736 280.147,64.3403 282.5,63.5C 285.451,63.7128 288.118,63.0461 290.5,61.5 Z"/></g>
<g><path style="opacity:0.988" fill="#b9d58b" d="M 308.5,79.5 C 306.023,76.5621 304.023,73.2288 302.5,69.5C 301.675,68.6143 300.675,68.281 299.5,68.5C 299.66,66.8008 299.494,65.1341 299,63.5C 297.209,57.73 294.375,57.0633 290.5,61.5C 288.118,63.0461 285.451,63.7128 282.5,63.5C 286.778,60.3547 291.445,57.6881 296.5,55.5C 301.571,62.9754 305.571,70.9754 308.5,79.5 Z"/></g>
<g><path style="opacity:1" fill="#c1d992" d="M 227.5,67.5 C 229.984,69.8003 231.984,72.4669 233.5,75.5C 229.62,74.2814 227.62,71.6147 227.5,67.5 Z"/></g>
<g><path style="opacity:0.682" fill="#cde3a9" d="M 273.5,69.5 C 270.54,72.6448 267.207,75.3115 263.5,77.5C 266.095,73.8743 269.428,71.2076 273.5,69.5 Z"/></g>
<g><path style="opacity:0.667" fill="#d3e8b5" d="M 63.5,63.5 C 65.5752,71.0565 67.4085,78.7231 69,86.5C 69.498,89.4816 69.6646,92.4816 69.5,95.5C 66.4402,85.1564 64.4402,74.4897 63.5,63.5 Z"/></g>
<g><path style="opacity:1" fill="#c5e099" d="M 233.5,75.5 C 234.89,76.8993 235.89,78.5659 236.5,80.5C 234.241,79.656 233.241,77.9893 233.5,75.5 Z"/></g>
<g><path style="opacity:0.659" fill="#dbedbc" d="M 263.5,77.5 C 258.139,83.1929 252.805,88.8596 247.5,94.5C 251.452,87.5471 256.786,81.8805 263.5,77.5 Z"/></g>
<g><path style="opacity:1" fill="#a9d566" d="M 276.5,67.5 C 274.494,71.5252 271.494,74.6919 267.5,77C 270.262,83.7671 272.762,90.6004 275,97.5C 276.191,102.767 276.691,108.101 276.5,113.5C 275.209,113.263 274.209,113.596 273.5,114.5C 271.629,114.859 270.129,115.859 269,117.5C 264.352,130.413 259.852,143.413 255.5,156.5C 255.167,156.5 254.833,156.5 254.5,156.5C 253.313,154.025 251.313,153.025 248.5,153.5C 246.427,151.42 244.093,149.754 241.5,148.5C 241.5,148.167 241.5,147.833 241.5,147.5C 241.157,145.775 240.157,145.275 238.5,146C 237.62,147.356 237.286,148.856 237.5,150.5C 235.75,151.659 234.75,153.326 234.5,155.5C 231.261,158.089 228.594,161.089 226.5,164.5C 226.833,162.5 227.167,160.5 227.5,158.5C 229.91,158.079 231.743,156.746 233,154.5C 234.851,150.507 236.017,146.34 236.5,142C 235.57,140.806 234.903,139.473 234.5,138C 235.273,131.871 235.773,125.704 236,119.5C 236.904,113.279 239.071,107.612 242.5,102.5C 241.243,98.5467 240.243,94.5467 239.5,90.5C 240.167,90.8333 240.833,91.1667 241.5,91.5C 241.259,94.7935 242.092,97.7935 244,100.5C 246.91,99.5497 248.077,97.5497 247.5,94.5C 252.805,88.8596 258.139,83.1929 263.5,77.5C 267.207,75.3115 270.54,72.6448 273.5,69.5C 273.973,68.0937 274.973,67.427 276.5,67.5 Z"/></g>
<g><path style="opacity:0.796" fill="#d5e9b0" d="M 309.5,81.5 C 311.806,85.0845 313.139,89.0845 313.5,93.5C 311.589,89.767 310.256,85.767 309.5,81.5 Z"/></g>
<g><path style="opacity:0.969" fill="#c6de9d" d="M 236.5,80.5 C 238.957,83.7512 240.624,87.4179 241.5,91.5C 240.833,91.1667 240.167,90.8333 239.5,90.5C 237.504,87.5072 236.504,84.1739 236.5,80.5 Z"/></g>
<g><path style="opacity:1" fill="#c9e09d" d="M 241.5,91.5 C 242.375,93.5681 243.541,95.5681 245,97.5C 245.377,96.0577 246.21,95.0577 247.5,94.5C 248.077,97.5497 246.91,99.5497 244,100.5C 242.092,97.7935 241.259,94.7935 241.5,91.5 Z"/></g>
<g><path style="opacity:0.894" fill="#cfe5a7" d="M 71.5,103.5 C 74.4127,107.203 75.746,111.537 75.5,116.5C 73.3902,112.498 72.0569,108.165 71.5,103.5 Z"/></g>
<g><path style="opacity:0.997" fill="#adcb75" d="M 313.5,93.5 C 314.768,95.9052 315.435,98.5718 315.5,101.5C 316.253,110.146 316.587,118.812 316.5,127.5C 316.167,127.5 315.833,127.5 315.5,127.5C 315.363,116.133 314.696,104.799 313.5,93.5 Z"/></g>
<g><path style="opacity:0.307" fill="#e3f6c2" d="M 315.5,101.5 C 316.965,106.59 317.632,111.923 317.5,117.5C 317.498,121.018 317.165,124.351 316.5,127.5C 316.587,118.812 316.253,110.146 315.5,101.5 Z"/></g>
<g><path style="opacity:0.991" fill="#c4de9b" d="M 75.5,116.5 C 79.8113,121.997 82.4779,128.33 83.5,135.5C 80.0394,129.57 77.3727,123.236 75.5,116.5 Z"/></g>
<g><path style="opacity:0.29" fill="#def2c1" d="M 315.5,127.5 C 315.833,127.5 316.167,127.5 316.5,127.5C 316.678,131.122 316.011,134.456 314.5,137.5C 314.833,134.167 315.167,130.833 315.5,127.5 Z"/></g>
<g><path style="opacity:0.051" fill="#dff0c0" d="M 83.5,135.5 C 85.4331,136.642 86.9331,138.308 88,140.5C 90.2329,145.965 92.7329,151.299 95.5,156.5C 90.2252,150.29 86.2252,143.29 83.5,135.5 Z"/></g>
<g><path style="opacity:0.42" fill="#deefbe" d="M 314.5,137.5 C 314.405,139.786 313.738,141.786 312.5,143.5C 312.259,141.102 312.926,139.102 314.5,137.5 Z"/></g>
<g><path style="opacity:1" fill="#cae2a4" d="M 312.5,143.5 C 310.773,147.948 308.273,151.948 305,155.5C 302.931,157.085 300.764,158.419 298.5,159.5C 299.234,158.292 299.567,156.959 299.5,155.5C 301.099,155.768 302.432,155.434 303.5,154.5C 306.734,151.038 309.734,147.371 312.5,143.5 Z"/></g>
<g><path style="opacity:1" fill="#9dc65b" d="M 303.5,154.5 C 302.432,155.434 301.099,155.768 299.5,155.5C 299.567,156.959 299.234,158.292 298.5,159.5C 294.562,161.035 290.562,162.368 286.5,163.5C 280.31,163.823 274.31,163.49 268.5,162.5C 268.833,162.5 269.167,162.5 269.5,162.5C 276.23,162.774 282.897,162.274 289.5,161C 289.833,160.667 290.167,160.333 290.5,160C 289.376,159.751 288.376,159.251 287.5,158.5C 289.489,157.385 291.322,157.718 293,159.5C 294.44,158.852 295.94,158.519 297.5,158.5C 297.5,157.167 297.5,155.833 297.5,154.5C 299.5,154.5 301.5,154.5 303.5,154.5 Z"/></g>
<g><path style="opacity:0.439" fill="#e1f3c6" d="M 95.5,156.5 C 98.6254,159.39 101.292,162.723 103.5,166.5C 99.8831,163.936 97.2164,160.603 95.5,156.5 Z"/></g>
<g><path style="opacity:1" fill="#99c94f" d="M 191.5,152.5 C 192.458,152.953 193.292,153.619 194,154.5C 199.389,163.385 204.556,172.385 209.5,181.5C 204.875,181.477 201.542,183.477 199.5,187.5C 194.147,188.739 189.147,190.406 184.5,192.5C 181.727,193.657 178.727,194.324 175.5,194.5C 167.493,194.666 159.493,194.5 151.5,194C 150.833,193.333 150.167,192.667 149.5,192C 160.926,187.454 171.259,181.12 180.5,173C 184.733,169.096 188.233,164.596 191,159.5C 192.518,157.187 192.684,154.854 191.5,152.5 Z"/></g>
<g><path style="opacity:0.059" fill="#e8f8cb" d="M 298.5,159.5 C 297.942,160.79 296.942,161.623 295.5,162C 292.647,163.43 289.647,164.263 286.5,164.5C 286.5,164.167 286.5,163.833 286.5,163.5C 290.562,162.368 294.562,161.035 298.5,159.5 Z"/></g>
<g><path style="opacity:0.22" fill="#eefacd" d="M 286.5,164.5 C 280.69,165.49 274.69,165.823 268.5,165.5C 268.737,166.791 268.404,167.791 267.5,168.5C 267.5,167.167 267.5,165.833 267.5,164.5C 273.833,164.5 280.167,164.5 286.5,164.5 Z"/></g>
<g><path style="opacity:0.557" fill="#ddecc0" d="M 103.5,166.5 C 105.017,166.511 106.184,167.177 107,168.5C 108.75,170.734 110.25,173.068 111.5,175.5C 108.139,173.105 105.472,170.105 103.5,166.5 Z"/></g>
<g><path style="opacity:0.925" fill="#a7c86d" d="M 363.5,172.5 C 371.65,171.507 379.983,171.174 388.5,171.5C 394.43,171.128 400.097,171.795 405.5,173.5C 391.855,172.615 378.189,172.282 364.5,172.5C 364.167,172.5 363.833,172.5 363.5,172.5 Z"/></g>
<g><path style="opacity:0.588" fill="#c9dfa7" d="M 267.5,169.5 C 267.101,173.116 266.101,176.45 264.5,179.5C 264.59,175.786 265.59,172.452 267.5,169.5 Z"/></g>
<g><path style="opacity:1" fill="#99c950" d="M 364.5,172.5 C 378.189,172.282 391.855,172.615 405.5,173.5C 413.828,174.643 422.161,175.976 430.5,177.5C 431.388,180.054 431.721,182.721 431.5,185.5C 427.482,192.164 425.149,199.498 424.5,207.5C 423.25,207.577 422.417,208.244 422,209.5C 420.869,212.445 420.036,215.445 419.5,218.5C 418.674,221.485 417.341,224.151 415.5,226.5C 412.863,228.482 411.53,231.148 411.5,234.5C 411.5,234.833 411.5,235.167 411.5,235.5C 409.088,235.694 408.088,237.027 408.5,239.5C 406.983,239.511 405.816,240.177 405,241.5C 403.336,244.322 401.503,246.989 399.5,249.5C 395.642,249.86 393.642,252.027 393.5,256C 392.216,256.684 391.049,256.517 390,255.5C 389.5,256 389,256.5 388.5,257C 389.337,258.011 389.67,259.178 389.5,260.5C 387.833,261.5 386.5,262.833 385.5,264.5C 385.5,265.167 385.167,265.5 384.5,265.5C 382.965,264.212 381.299,264.212 379.5,265.5C 377.585,267.071 376.585,269.071 376.5,271.5C 373.422,271.587 371.089,272.92 369.5,275.5C 368.486,276.674 367.153,277.34 365.5,277.5C 363.5,277.833 361.5,278.167 359.5,278.5C 350.497,279.778 341.497,279.778 332.5,278.5C 331.508,278.672 330.842,278.338 330.5,277.5C 330.082,276.778 329.416,276.278 328.5,276C 347.562,264.938 362.728,249.772 374,230.5C 379.079,221.821 383.413,212.821 387,203.5C 389.472,195.285 391.139,186.952 392,178.5C 382.827,176.156 373.66,174.156 364.5,172.5 Z"/></g>
<g><path style="opacity:1" fill="#a9d566" d="M 363.5,172.5 C 363.833,172.5 364.167,172.5 364.5,172.5C 373.66,174.156 382.827,176.156 392,178.5C 391.139,186.952 389.472,195.285 387,203.5C 383.413,212.821 379.079,221.821 374,230.5C 362.728,249.772 347.562,264.938 328.5,276C 329.416,276.278 330.082,276.778 330.5,277.5C 329.167,277.5 327.833,277.5 326.5,277.5C 325.191,274.549 322.857,273.216 319.5,273.5C 318.25,271.846 316.916,270.179 315.5,268.5C 313.49,264.719 310.49,262.385 306.5,261.5C 315.989,254.19 325.656,247.023 335.5,240C 336.833,239.333 338.167,239.333 339.5,240C 343.984,241.743 348.317,243.743 352.5,246C 360.667,247.167 364.167,243.667 363,235.5C 359.83,233.645 357.164,231.645 355,229.5C 362.254,225.296 369.754,221.463 377.5,218C 381.956,212.835 381.29,208.502 375.5,205C 373.5,204.333 371.5,204.333 369.5,205C 344.61,215.927 321.944,230.094 301.5,247.5C 300.614,248.325 300.281,249.325 300.5,250.5C 299.5,250.5 298.5,250.5 297.5,250.5C 297.5,249.833 297.833,249.5 298.5,249.5C 299.124,249.083 299.457,248.416 299.5,247.5C 297.951,245.098 297.284,242.432 297.5,239.5C 295.966,230.392 296.299,221.392 298.5,212.5C 299.15,210.565 299.483,208.565 299.5,206.5C 306.208,197.458 314.208,189.792 323.5,183.5C 326.852,183.47 329.518,182.137 331.5,179.5C 337.943,178.138 344.276,176.305 350.5,174C 354.832,173.417 359.165,172.917 363.5,172.5 Z"/></g>
<g><path style="opacity:0.157" fill="#e9f9d0" d="M 369.5,170.5 C 390.271,168.692 410.604,171.025 430.5,177.5C 422.161,175.976 413.828,174.643 405.5,173.5C 400.097,171.795 394.43,171.128 388.5,171.5C 382.355,170.51 376.022,170.177 369.5,170.5 Z"/></g>
<g><path style="opacity:0.604" fill="#d8ebb9" d="M 369.5,170.5 C 376.022,170.177 382.355,170.51 388.5,171.5C 379.983,171.174 371.65,171.507 363.5,172.5C 359.165,172.917 354.832,173.417 350.5,174C 344.276,176.305 337.943,178.138 331.5,179.5C 343.393,173.718 356.059,170.718 369.5,170.5 Z"/></g>
<g><path style="opacity:0.902" fill="#cbe2a7" d="M 111.5,175.5 C 114.956,176.27 117.623,178.27 119.5,181.5C 116.545,179.878 113.878,177.878 111.5,175.5 Z"/></g>
<g><path style="opacity:1" fill="#c7e09b" d="M 119.5,181.5 C 123.555,181.884 126.555,183.884 128.5,187.5C 124.951,186.277 121.951,184.277 119.5,181.5 Z"/></g>
<g><path style="opacity:1" fill="#bed98c" d="M 209.5,181.5 C 209.5,181.833 209.5,182.167 209.5,182.5C 206.45,184.692 203.117,186.358 199.5,187.5C 201.542,183.477 204.875,181.477 209.5,181.5 Z"/></g>
<g><path style="opacity:1" fill="#cfe5ac" d="M 331.5,179.5 C 329.518,182.137 326.852,183.47 323.5,183.5C 325.612,181.229 328.279,179.896 331.5,179.5 Z"/></g>
<g><path style="opacity:0.549" fill="#d1e1b6" d="M 430.5,177.5 C 431.5,177.5 432.5,177.5 433.5,177.5C 433.435,180.428 432.768,183.095 431.5,185.5C 431.721,182.721 431.388,180.054 430.5,177.5 Z"/></g>
<g><path style="opacity:1" fill="#81b339" d="M 200.5,138.5 C 207.595,148.587 214.261,158.92 220.5,169.5C 220.208,172.765 220.875,175.765 222.5,178.5C 221.554,180.258 221.554,181.925 222.5,183.5C 223.527,182.209 224.527,182.209 225.5,183.5C 226.167,183.833 226.833,184.167 227.5,184.5C 227.166,187.491 228.166,189.824 230.5,191.5C 231.359,195.562 232.526,199.562 234,203.5C 234.941,205.727 236.108,207.727 237.5,209.5C 237.259,211.898 237.926,213.898 239.5,215.5C 239.34,217.199 239.506,218.866 240,220.5C 243.789,215.504 245.289,209.837 244.5,203.5C 246.045,202.77 246.878,201.437 247,199.5C 247.74,193.842 248.406,188.175 249,182.5C 249.667,181.833 250.333,181.167 251,180.5C 251.993,176.558 252.66,172.558 253,168.5C 256.241,164.956 257.075,160.956 255.5,156.5C 259.852,143.413 264.352,130.413 269,117.5C 270.129,115.859 271.629,114.859 273.5,114.5C 276.32,114.248 278.986,114.748 281.5,116C 282.944,117.126 283.61,118.626 283.5,120.5C 281.177,126.307 279.343,132.307 278,138.5C 273.788,145.941 270.955,153.941 269.5,162.5C 269.167,162.5 268.833,162.5 268.5,162.5C 267.001,163.678 266.001,165.345 265.5,167.5C 263.285,172.878 262.118,178.544 262,184.5C 260.113,186.026 259.113,188.026 259,190.5C 257.439,198.689 256.273,207.023 255.5,215.5C 255.5,218.167 255.5,220.833 255.5,223.5C 253.558,228.056 252.892,233.056 253.5,238.5C 253.5,238.833 253.5,239.167 253.5,239.5C 251.955,240.23 251.122,241.563 251,243.5C 250.175,253.675 250.342,263.675 251.5,273.5C 251.5,273.833 251.5,274.167 251.5,274.5C 251.302,279.75 251.969,284.75 253.5,289.5C 254.69,296.067 255.357,302.734 255.5,309.5C 255.369,310.239 255.536,310.906 256,311.5C 259.969,306.468 262.469,300.801 263.5,294.5C 265.024,293.826 266.358,292.826 267.5,291.5C 270.248,287.5 272.248,283.167 273.5,278.5C 277.12,277.548 278.787,275.215 278.5,271.5C 282.971,267.215 286.971,262.548 290.5,257.5C 293.833,256.167 296.167,253.833 297.5,250.5C 298.5,250.5 299.5,250.5 300.5,250.5C 300.281,249.325 300.614,248.325 301.5,247.5C 321.944,230.094 344.61,215.927 369.5,205C 371.5,204.333 373.5,204.333 375.5,205C 381.29,208.502 381.956,212.835 377.5,218C 369.754,221.463 362.254,225.296 355,229.5C 357.164,231.645 359.83,233.645 363,235.5C 364.167,243.667 360.667,247.167 352.5,246C 348.317,243.743 343.984,241.743 339.5,240C 338.167,239.333 336.833,239.333 335.5,240C 325.656,247.023 315.989,254.19 306.5,261.5C 305.5,261.5 304.5,261.5 303.5,261.5C 303.657,262.873 303.49,264.207 303,265.5C 301.187,264.391 300.354,265.058 300.5,267.5C 297.477,267.105 296.477,268.105 297.5,270.5C 296.311,271.429 294.978,271.762 293.5,271.5C 293.5,272.833 293.5,274.167 293.5,275.5C 292.265,275.279 291.265,274.612 290.5,273.5C 289.451,276.08 288.784,278.746 288.5,281.5C 286.833,281.5 285.167,281.5 283.5,281.5C 283.773,283.451 283.107,284.951 281.5,286C 282.167,286.333 282.833,286.667 283.5,287C 280.75,289.67 278.917,292.836 278,296.5C 277.667,296.167 277.333,295.833 277,295.5C 275.617,298.368 274.784,301.368 274.5,304.5C 273.13,307.619 272.13,310.952 271.5,314.5C 269.787,315.635 269.12,317.302 269.5,319.5C 267.415,321.684 266.415,324.351 266.5,327.5C 265.076,329.515 264.41,331.848 264.5,334.5C 264.5,334.833 264.5,335.167 264.5,335.5C 263.883,335.611 263.383,335.944 263,336.5C 262.505,338.473 262.338,340.473 262.5,342.5C 262.675,344.621 262.341,346.621 261.5,348.5C 259.96,350.838 259.294,353.505 259.5,356.5C 258.59,358.019 257.757,359.685 257,361.5C 256.667,369.167 256.333,376.833 256,384.5C 252.851,386.362 249.351,387.029 245.5,386.5C 244.923,369.338 243.923,352.338 242.5,335.5C 242.666,325.828 242.5,316.161 242,306.5C 241.768,305.263 241.268,304.263 240.5,303.5C 240.666,297.158 240.5,290.825 240,284.5C 239.83,282.285 239.163,280.285 238,278.5C 237.833,275 237.667,271.5 237.5,268C 238.357,260.331 238.19,252.831 237,245.5C 236.5,243.667 235.333,242.5 233.5,242C 234.868,240.66 236.201,239.326 237.5,238C 236.518,236.946 235.351,236.446 234,236.5C 233.2,232.764 233.7,229.264 235.5,226C 235.167,225.167 234.833,224.333 234.5,223.5C 232.785,226.305 231.452,229.305 230.5,232.5C 229.583,231.873 228.583,231.539 227.5,231.5C 226.699,224.257 224.699,217.59 221.5,211.5C 221.657,210.127 221.49,208.793 221,207.5C 218.954,201.816 216.454,196.483 213.5,191.5C 213.171,188.173 211.837,185.507 209.5,183.5C 209.5,183.167 209.5,182.833 209.5,182.5C 209.5,182.167 209.5,181.833 209.5,181.5C 204.556,172.385 199.389,163.385 194,154.5C 193.292,153.619 192.458,152.953 191.5,152.5C 176.381,130.361 158.881,110.028 139,91.5C 135.242,81.925 138.409,78.0917 148.5,80C 157.687,88.9208 166.521,98.0874 175,107.5C 176.331,100.178 177.498,92.8451 178.5,85.5C 180.063,83.5984 182.063,82.5984 184.5,82.5C 190.585,82.3744 193.252,85.3744 192.5,91.5C 190.948,100.796 189.615,110.129 188.5,119.5C 191.213,126.579 195.213,132.913 200.5,138.5 Z M 241.5,147.5 C 241.5,147.833 241.5,148.167 241.5,148.5C 243.9,151.903 246.9,154.57 250.5,156.5C 251.789,157.637 252.789,158.97 253.5,160.5C 252.076,162.515 251.41,164.848 251.5,167.5C 248.898,175.917 246.898,184.583 245.5,193.5C 243.576,200.276 242.076,207.276 241,214.5C 240.617,215.056 240.117,215.389 239.5,215.5C 239.405,213.214 238.738,211.214 237.5,209.5C 235.933,203.121 233.6,197.121 230.5,191.5C 230.293,188.759 229.293,186.426 227.5,184.5C 226.925,181.088 225.592,178.088 223.5,175.5C 223.573,173.973 222.906,172.973 221.5,172.5C 222.833,170.833 224.167,169.167 225.5,167.5C 229.471,164.224 232.471,160.224 234.5,155.5C 236.25,154.341 237.25,152.674 237.5,150.5C 238.558,149.4 239.392,148.066 240,146.5C 240.383,147.056 240.883,147.389 241.5,147.5 Z"/></g>
<g><path style="opacity:1" fill="#92ba55" d="M 225.5,165.5 C 225.5,166.167 225.5,166.833 225.5,167.5C 224.167,169.167 222.833,170.833 221.5,172.5C 221.427,174.027 222.094,175.027 223.5,175.5C 223.584,178.327 224.25,180.994 225.5,183.5C 224.527,182.209 223.527,182.209 222.5,183.5C 221.554,181.925 221.554,180.258 222.5,178.5C 220.875,175.765 220.208,172.765 220.5,169.5C 220.787,166.516 222.454,165.183 225.5,165.5 Z"/></g>
<g><path style="opacity:0.847" fill="#c4d8a2" d="M 223.5,175.5 C 225.592,178.088 226.925,181.088 227.5,184.5C 226.833,184.167 226.167,183.833 225.5,183.5C 224.25,180.994 223.584,178.327 223.5,175.5 Z"/></g>
<g><path style="opacity:1" fill="#95b85c" d="M 254.5,156.5 C 254.833,156.5 255.167,156.5 255.5,156.5C 257.075,160.956 256.241,164.956 253,168.5C 252.66,172.558 251.993,176.558 251,180.5C 250.333,181.167 249.667,181.833 249,182.5C 248.406,188.175 247.74,193.842 247,199.5C 246.878,201.437 246.045,202.77 244.5,203.5C 245.324,200.236 245.658,196.902 245.5,193.5C 246.898,184.583 248.898,175.917 251.5,167.5C 252.537,166.07 253.204,164.403 253.5,162.5C 254.461,160.735 254.795,158.735 254.5,156.5 Z"/></g>
<g><path style="opacity:0.243" fill="#dbedc9" d="M 221.5,172.5 C 222.906,172.973 223.573,173.973 223.5,175.5C 222.094,175.027 221.427,174.027 221.5,172.5 Z"/></g>
<g><path style="opacity:0.455" fill="#e3f2cd" d="M 253.5,160.5 C 253.5,161.167 253.5,161.833 253.5,162.5C 253.204,164.403 252.537,166.07 251.5,167.5C 251.41,164.848 252.076,162.515 253.5,160.5 Z"/></g>
<g><path style="opacity:0.659" fill="#d5e7b2" d="M 234.5,155.5 C 232.471,160.224 229.471,164.224 225.5,167.5C 225.5,166.833 225.5,166.167 225.5,165.5C 225.5,164.833 225.833,164.5 226.5,164.5C 228.594,161.089 231.261,158.089 234.5,155.5 Z"/></g>
<g><path style="opacity:1" fill="#bad986" d="M 248.5,153.5 C 251.313,153.025 253.313,154.025 254.5,156.5C 254.795,158.735 254.461,160.735 253.5,162.5C 253.5,161.833 253.5,161.167 253.5,160.5C 252.789,158.97 251.789,157.637 250.5,156.5C 249.833,155.5 249.167,154.5 248.5,153.5 Z"/></g>
<g><path style="opacity:0.169" fill="#eaf6d0" d="M 237.5,150.5 C 237.25,152.674 236.25,154.341 234.5,155.5C 234.75,153.326 235.75,151.659 237.5,150.5 Z"/></g>
<g><path style="opacity:0.6" fill="#dff1c5" d="M 241.5,148.5 C 244.093,149.754 246.427,151.42 248.5,153.5C 249.167,154.5 249.833,155.5 250.5,156.5C 246.9,154.57 243.9,151.903 241.5,148.5 Z"/></g>
<g><path style="opacity:0.133" fill="#dcf3bd" d="M 241.5,147.5 C 240.883,147.389 240.383,147.056 240,146.5C 239.392,148.066 238.558,149.4 237.5,150.5C 237.286,148.856 237.62,147.356 238.5,146C 240.157,145.275 241.157,145.775 241.5,147.5 Z"/></g>
<g><path style="opacity:0.58" fill="#d3eab1" d="M 323.5,183.5 C 314.208,189.792 306.208,197.458 299.5,206.5C 304.889,196.111 312.889,188.445 323.5,183.5 Z"/></g>
<g><path style="opacity:0.918" fill="#bfd697" d="M 227.5,184.5 C 229.293,186.426 230.293,188.759 230.5,191.5C 228.166,189.824 227.166,187.491 227.5,184.5 Z"/></g>
<g><path style="opacity:0.71" fill="#c7dca7" d="M 263.5,185.5 C 262.454,191.016 261.121,196.349 259.5,201.5C 259.85,196.431 260.683,191.431 262,186.5C 262.383,185.944 262.883,185.611 263.5,185.5 Z"/></g>
<g><path style="opacity:0.188" fill="#d9eabc" d="M 209.5,183.5 C 211.837,185.507 213.171,188.173 213.5,191.5C 211.657,189.147 210.323,186.48 209.5,183.5 Z"/></g>
<g><path style="opacity:1" fill="#b3d47c" d="M 199.5,187.5 C 197.151,189.341 194.485,190.674 191.5,191.5C 189.139,191.674 186.806,192.007 184.5,192.5C 189.147,190.406 194.147,188.739 199.5,187.5 Z"/></g>
<g><path style="opacity:0.718" fill="#daeebb" d="M 128.5,187.5 C 135.403,189.62 142.07,192.287 148.5,195.5C 141.085,194.451 134.418,191.784 128.5,187.5 Z"/></g>
<g><path style="opacity:0.329" fill="#dcedc0" d="M 213.5,191.5 C 216.454,196.483 218.954,201.816 221,207.5C 221.49,208.793 221.657,210.127 221.5,211.5C 218.321,205.126 215.654,198.46 213.5,191.5 Z"/></g>
<g><path style="opacity:0.867" fill="#c9e0a7" d="M 230.5,191.5 C 233.6,197.121 235.933,203.121 237.5,209.5C 236.108,207.727 234.941,205.727 234,203.5C 232.526,199.562 231.359,195.562 230.5,191.5 Z"/></g>
<g><path style="opacity:1" fill="#c0db94" d="M 431.5,185.5 C 430.342,193.302 428.009,200.636 424.5,207.5C 425.149,199.498 427.482,192.164 431.5,185.5 Z"/></g>
<g><path style="opacity:0.163" fill="#e4f5c8" d="M 191.5,191.5 C 177.892,197.446 163.892,198.78 149.5,195.5C 154.519,195.502 159.519,195.835 164.5,196.5C 168.396,196.353 172.062,195.686 175.5,194.5C 178.727,194.324 181.727,193.657 184.5,192.5C 186.806,192.007 189.139,191.674 191.5,191.5 Z"/></g>
<g><path style="opacity:1" fill="#95b85b" d="M 268.5,162.5 C 274.31,163.49 280.31,163.823 286.5,163.5C 286.5,163.833 286.5,164.167 286.5,164.5C 280.167,164.5 273.833,164.5 267.5,164.5C 267.5,165.833 267.5,167.167 267.5,168.5C 267.5,168.833 267.5,169.167 267.5,169.5C 265.59,172.452 264.59,175.786 264.5,179.5C 264.483,181.565 264.15,183.565 263.5,185.5C 262.883,185.611 262.383,185.944 262,186.5C 260.683,191.431 259.85,196.431 259.5,201.5C 259.5,202.167 259.5,202.833 259.5,203.5C 257.777,205.78 257.111,208.447 257.5,211.5C 257.5,212.5 257.5,213.5 257.5,214.5C 256.833,214.833 256.167,215.167 255.5,215.5C 256.273,207.023 257.439,198.689 259,190.5C 259.113,188.026 260.113,186.026 262,184.5C 262.118,178.544 263.285,172.878 265.5,167.5C 266.001,165.345 267.001,163.678 268.5,162.5 Z"/></g>
<g><path style="opacity:0.384" fill="#cbdfac" d="M 259.5,203.5 C 259.198,206.373 258.531,209.039 257.5,211.5C 257.111,208.447 257.777,205.78 259.5,203.5 Z"/></g>
<g><path style="opacity:0.443" fill="#def2c3" d="M 237.5,209.5 C 238.738,211.214 239.405,213.214 239.5,215.5C 237.926,213.898 237.259,211.898 237.5,209.5 Z"/></g>
<g><path style="opacity:0.984" fill="#a4c274" d="M 245.5,193.5 C 245.658,196.902 245.324,200.236 244.5,203.5C 245.289,209.837 243.789,215.504 240,220.5C 239.506,218.866 239.34,217.199 239.5,215.5C 240.117,215.389 240.617,215.056 241,214.5C 242.076,207.276 243.576,200.276 245.5,193.5 Z"/></g>
<g><path style="opacity:0.478" fill="#e3f1c8" d="M 299.5,206.5 C 299.483,208.565 299.15,210.565 298.5,212.5C 297.313,214.072 296.313,215.739 295.5,217.5C 295.667,213.327 297,209.66 299.5,206.5 Z"/></g>
<g><path style="opacity:0.937" fill="#bcd692" d="M 424.5,207.5 C 423.397,211.497 421.731,215.164 419.5,218.5C 420.036,215.445 420.869,212.445 422,209.5C 422.417,208.244 423.25,207.577 424.5,207.5 Z"/></g>
<g><path style="opacity:0.878" fill="#c0d49d" d="M 257.5,214.5 C 257.142,217.689 256.475,220.689 255.5,223.5C 255.5,220.833 255.5,218.167 255.5,215.5C 256.167,215.167 256.833,214.833 257.5,214.5 Z"/></g>
<g><path style="opacity:0.424" fill="#cfe2ae" d="M 221.5,211.5 C 224.699,217.59 226.699,224.257 227.5,231.5C 224.928,225.107 222.928,218.441 221.5,211.5 Z"/></g>
<g><path style="opacity:1" fill="#b5d57f" d="M 298.5,212.5 C 296.299,221.392 295.966,230.392 297.5,239.5C 296.732,238.737 296.232,237.737 296,236.5C 295.501,230.509 295.334,224.509 295.5,218.5C 295.5,218.167 295.5,217.833 295.5,217.5C 296.313,215.739 297.313,214.072 298.5,212.5 Z"/></g>
<g><path style="opacity:1" fill="#8eb750" d="M 240.5,303.5 C 240.167,303.5 239.833,303.5 239.5,303.5C 238.577,299.936 238.244,296.269 238.5,292.5C 238.917,288.183 238.25,284.183 236.5,280.5C 235.886,276.865 235.552,273.198 235.5,269.5C 235.656,265.236 234.989,261.236 233.5,257.5C 232.837,249.838 231.17,242.505 228.5,235.5C 227.566,234.432 227.232,233.099 227.5,231.5C 228.583,231.539 229.583,231.873 230.5,232.5C 231.452,229.305 232.785,226.305 234.5,223.5C 234.833,224.333 235.167,225.167 235.5,226C 233.7,229.264 233.2,232.764 234,236.5C 235.351,236.446 236.518,236.946 237.5,238C 236.201,239.326 234.868,240.66 233.5,242C 235.333,242.5 236.5,243.667 237,245.5C 238.19,252.831 238.357,260.331 237.5,268C 237.667,271.5 237.833,275 238,278.5C 239.163,280.285 239.83,282.285 240,284.5C 240.5,290.825 240.666,297.158 240.5,303.5 Z"/></g>
<g><path style="opacity:0.955" fill="#a9c87d" d="M 255.5,223.5 C 255.392,228.71 254.725,233.71 253.5,238.5C 252.892,233.056 253.558,228.056 255.5,223.5 Z"/></g>
<g><path style="opacity:0.502" fill="#e5f4ce" d="M 295.5,218.5 C 295.334,224.509 295.501,230.509 296,236.5C 296.232,237.737 296.732,238.737 297.5,239.5C 297.284,242.432 297.951,245.098 299.5,247.5C 299.457,248.416 299.124,249.083 298.5,249.5C 294.116,238.982 293.116,228.648 295.5,218.5 Z"/></g>
<g><path style="opacity:0.424" fill="#d0e4ac" d="M 415.5,226.5 C 414.674,229.485 413.341,232.151 411.5,234.5C 411.53,231.148 412.863,228.482 415.5,226.5 Z"/></g>
<g><path style="opacity:0.212" fill="#e3f6cb" d="M 411.5,235.5 C 410.488,236.872 409.488,238.205 408.5,239.5C 408.088,237.027 409.088,235.694 411.5,235.5 Z"/></g>
<g><path style="opacity:0.184" fill="#d4e8b3" d="M 228.5,235.5 C 231.17,242.505 232.837,249.838 233.5,257.5C 231.343,250.395 229.676,243.061 228.5,235.5 Z"/></g>
<g><path style="opacity:0.294" fill="#d5eab7" d="M 408.5,239.5 C 405.114,245.606 400.781,250.94 395.5,255.5C 396.415,253.246 397.748,251.246 399.5,249.5C 401.503,246.989 403.336,244.322 405,241.5C 405.816,240.177 406.983,239.511 408.5,239.5 Z"/></g>
<g><path style="opacity:0.993" fill="#a3c172" d="M 253.5,239.5 C 252.68,250.824 252.014,262.157 251.5,273.5C 250.342,263.675 250.175,253.675 251,243.5C 251.122,241.563 251.955,240.23 253.5,239.5 Z"/></g>
<g><path style="opacity:1" fill="#abcc74" d="M 399.5,249.5 C 397.748,251.246 396.415,253.246 395.5,255.5C 394.167,257.5 392.5,259.167 390.5,260.5C 390.167,260.5 389.833,260.5 389.5,260.5C 389.67,259.178 389.337,258.011 388.5,257C 389,256.5 389.5,256 390,255.5C 391.049,256.517 392.216,256.684 393.5,256C 393.642,252.027 395.642,249.86 399.5,249.5 Z"/></g>
<g><path style="opacity:0.918" fill="#acc784" d="M 297.5,250.5 C 296.167,253.833 293.833,256.167 290.5,257.5C 292.5,254.833 294.833,252.5 297.5,250.5 Z"/></g>
<g><path style="opacity:0.776" fill="#c0d79d" d="M 290.5,257.5 C 286.971,262.548 282.971,267.215 278.5,271.5C 281.555,266.08 285.555,261.413 290.5,257.5 Z"/></g>
<g><path style="opacity:0.22" fill="#d9ecb8" d="M 389.5,260.5 C 389.833,260.5 390.167,260.5 390.5,260.5C 389.415,262.587 387.749,263.92 385.5,264.5C 386.5,262.833 387.833,261.5 389.5,260.5 Z"/></g>
<g><path style="opacity:1" fill="#a5c771" d="M 306.5,261.5 C 310.49,262.385 313.49,264.719 315.5,268.5C 314.833,268.5 314.167,268.5 313.5,268.5C 312.415,266.413 310.749,265.08 308.5,264.5C 308.103,263.475 307.437,263.308 306.5,264C 301.936,268.395 297.602,272.895 293.5,277.5C 293.5,276.833 293.5,276.167 293.5,275.5C 293.5,274.167 293.5,272.833 293.5,271.5C 294.978,271.762 296.311,271.429 297.5,270.5C 296.477,268.105 297.477,267.105 300.5,267.5C 300.354,265.058 301.187,264.391 303,265.5C 303.49,264.207 303.657,262.873 303.5,261.5C 304.5,261.5 305.5,261.5 306.5,261.5 Z"/></g>
<g><path style="opacity:0.408" fill="#ebf6d0" d="M 308.5,264.5 C 310.749,265.08 312.415,266.413 313.5,268.5C 311.251,267.92 309.585,266.587 308.5,264.5 Z"/></g>
<g><path style="opacity:1" fill="#b0d27b" d="M 384.5,265.5 C 382.2,267.984 379.533,269.984 376.5,271.5C 376.585,269.071 377.585,267.071 379.5,265.5C 381.299,264.212 382.965,264.212 384.5,265.5 Z"/></g>
<g><path style="opacity:0.435" fill="#cbe0ab" d="M 233.5,257.5 C 234.989,261.236 235.656,265.236 235.5,269.5C 234.205,265.733 233.539,261.733 233.5,257.5 Z"/></g>
<g><path style="opacity:0.29" fill="#deedbf" d="M 313.5,268.5 C 314.167,268.5 314.833,268.5 315.5,268.5C 316.916,270.179 318.25,271.846 319.5,273.5C 316.911,272.581 314.911,270.914 313.5,268.5 Z"/></g>
<g><path style="opacity:0.918" fill="#cee4aa" d="M 319.5,273.5 C 322.857,273.216 325.191,274.549 326.5,277.5C 323.669,276.921 321.336,275.588 319.5,273.5 Z"/></g>
<g><path style="opacity:0.161" fill="#d1e9ae" d="M 376.5,271.5 C 374.664,273.588 372.331,274.921 369.5,275.5C 371.089,272.92 373.422,271.587 376.5,271.5 Z"/></g>
<g><path style="opacity:0.992" fill="#a7c573" d="M 278.5,271.5 C 278.787,275.215 277.12,277.548 273.5,278.5C 274.433,275.63 276.1,273.296 278.5,271.5 Z"/></g>
<g><path style="opacity:0.282" fill="#e1f3c7" d="M 326.5,277.5 C 327.833,277.5 329.167,277.5 330.5,277.5C 330.842,278.338 331.508,278.672 332.5,278.5C 333.263,279.268 334.263,279.768 335.5,280C 338.833,280.167 342.167,280.333 345.5,280.5C 350.437,280.7 355.104,280.033 359.5,278.5C 361.5,278.167 363.5,277.833 365.5,277.5C 352.484,284.103 339.484,284.103 326.5,277.5 Z"/></g>
<g><path style="opacity:1" fill="#a3ca67" d="M 332.5,278.5 C 341.497,279.778 350.497,279.778 359.5,278.5C 355.104,280.033 350.437,280.7 345.5,280.5C 342.167,280.333 338.833,280.167 335.5,280C 334.263,279.768 333.263,279.268 332.5,278.5 Z"/></g>
<g><path style="opacity:0.055" fill="#dcefc5" d="M 292.5,278.5 C 292.262,280.404 291.262,281.738 289.5,282.5C 289.738,280.596 290.738,279.262 292.5,278.5 Z"/></g>
<g><path style="opacity:0.055" fill="#e5f5d2" d="M 289.5,282.5 C 289.573,284.027 288.906,285.027 287.5,285.5C 287.427,283.973 288.094,282.973 289.5,282.5 Z"/></g>
<g><path style="opacity:0.529" fill="#cce2a8" d="M 236.5,280.5 C 238.25,284.183 238.917,288.183 238.5,292.5C 237.518,288.684 236.851,284.684 236.5,280.5 Z"/></g>
<g><path style="opacity:0.98" fill="#adc97e" d="M 273.5,278.5 C 272.248,283.167 270.248,287.5 267.5,291.5C 266.358,292.826 265.024,293.826 263.5,294.5C 263.66,292.847 264.326,291.514 265.5,290.5C 266.906,290.027 267.573,289.027 267.5,287.5C 268.723,283.951 270.723,280.951 273.5,278.5 Z"/></g>
<g><path style="opacity:0.047" fill="#e6f6d6" d="M 287.5,285.5 C 286.66,287.853 285.326,289.853 283.5,291.5C 283.845,288.802 285.178,286.802 287.5,285.5 Z"/></g>
<g><path style="opacity:0.769" fill="#b6cf8e" d="M 251.5,274.5 C 252.889,279.269 253.556,284.269 253.5,289.5C 251.969,284.75 251.302,279.75 251.5,274.5 Z"/></g>
<g><path style="opacity:0.259" fill="#ddeec6" d="M 267.5,287.5 C 267.573,289.027 266.906,290.027 265.5,290.5C 265.427,288.973 266.094,287.973 267.5,287.5 Z"/></g>
<g><path style="opacity:1" fill="#89b147" d="M 293.5,275.5 C 293.5,276.167 293.5,276.833 293.5,277.5C 293.5,278.167 293.167,278.5 292.5,278.5C 290.738,279.262 289.738,280.596 289.5,282.5C 288.094,282.973 287.427,283.973 287.5,285.5C 285.178,286.802 283.845,288.802 283.5,291.5C 280.08,295.579 277.08,299.912 274.5,304.5C 274.784,301.368 275.617,298.368 277,295.5C 277.333,295.833 277.667,296.167 278,296.5C 278.917,292.836 280.75,289.67 283.5,287C 282.833,286.667 282.167,286.333 281.5,286C 283.107,284.951 283.773,283.451 283.5,281.5C 285.167,281.5 286.833,281.5 288.5,281.5C 288.784,278.746 289.451,276.08 290.5,273.5C 291.265,274.612 292.265,275.279 293.5,275.5 Z"/></g>
<g><path style="opacity:0.129" fill="#eaf8d5" d="M 261.5,298.5 C 261.573,300.027 260.906,301.027 259.5,301.5C 259.427,299.973 260.094,298.973 261.5,298.5 Z"/></g>
<g><path style="opacity:1" fill="#a9c678" d="M 263.5,294.5 C 262.469,300.801 259.969,306.468 256,311.5C 255.536,310.906 255.369,310.239 255.5,309.5C 256.801,306.899 258.134,304.232 259.5,301.5C 260.906,301.027 261.573,300.027 261.5,298.5C 261.66,296.847 262.326,295.514 263.5,294.5 Z"/></g>
<g><path style="opacity:0.286" fill="#d1e6b2" d="M 283.5,291.5 C 279.226,299.048 275.226,306.715 271.5,314.5C 272.13,310.952 273.13,307.619 274.5,304.5C 277.08,299.912 280.08,295.579 283.5,291.5 Z"/></g>
<g><path style="opacity:1" fill="#a3c26f" d="M 239.5,303.5 C 239.833,303.5 240.167,303.5 240.5,303.5C 241.268,304.263 241.768,305.263 242,306.5C 242.5,316.161 242.666,325.828 242.5,335.5C 242.167,335.5 241.833,335.5 241.5,335.5C 240.502,324.862 239.835,314.196 239.5,303.5 Z"/></g>
<g><path style="opacity:0.439" fill="#d4e6b2" d="M 271.5,314.5 C 271.204,316.403 270.537,318.07 269.5,319.5C 269.12,317.302 269.787,315.635 271.5,314.5 Z"/></g>
<g><path style="opacity:0.067" fill="#dbeebd" d="M 269.5,319.5 C 269.267,322.542 268.267,325.208 266.5,327.5C 266.415,324.351 267.415,321.684 269.5,319.5 Z"/></g>
<g><path style="opacity:0.427" fill="#d7e8bc" d="M 266.5,327.5 C 266.59,330.152 265.924,332.485 264.5,334.5C 264.41,331.848 265.076,329.515 266.5,327.5 Z"/></g>
<g><path style="opacity:0.737" fill="#c5dba1" d="M 264.5,335.5 C 264.279,338.067 263.612,340.401 262.5,342.5C 262.338,340.473 262.505,338.473 263,336.5C 263.383,335.944 263.883,335.611 264.5,335.5 Z"/></g>
<g><path style="opacity:0.541" fill="#cadeab" d="M 261.5,348.5 C 261.283,352.705 260.617,356.705 259.5,360.5C 259.5,359.167 259.5,357.833 259.5,356.5C 259.294,353.505 259.96,350.838 261.5,348.5 Z"/></g>
<g><path style="opacity:1" fill="#8aae4b" d="M 242.5,335.5 C 243.923,352.338 244.923,369.338 245.5,386.5C 249.351,387.029 252.851,386.362 256,384.5C 256.333,376.833 256.667,369.167 257,361.5C 257.757,359.685 258.59,358.019 259.5,356.5C 259.5,357.833 259.5,359.167 259.5,360.5C 259.5,360.833 259.5,361.167 259.5,361.5C 258.691,363.292 258.191,365.292 258,367.5C 257.5,374.158 257.334,380.825 257.5,387.5C 252.833,387.5 248.167,387.5 243.5,387.5C 243.537,370.158 243.203,352.824 242.5,335.5 Z"/></g>
<g><path style="opacity:0.747" fill="#c2cfa0" d="M 241.5,335.5 C 241.833,335.5 242.167,335.5 242.5,335.5C 243.203,352.824 243.537,370.158 243.5,387.5C 243.167,387.5 242.833,387.5 242.5,387.5C 221.833,387.5 201.167,387.5 180.5,387.5C 200.993,386.503 221.66,386.169 242.5,386.5C 242.093,369.502 241.759,352.502 241.5,335.5 Z"/></g>
<g><path style="opacity:0.584" fill="#c0d69e" d="M 259.5,361.5 C 258.876,369.819 258.543,378.152 258.5,386.5C 258.5,386.833 258.5,387.167 258.5,387.5C 258.167,387.5 257.833,387.5 257.5,387.5C 257.334,380.825 257.5,374.158 258,367.5C 258.191,365.292 258.691,363.292 259.5,361.5 Z"/></g>
<g><path style="opacity:0.235" fill="#e2d4cc" d="M 258.5,387.5 C 258.5,387.167 258.5,386.833 258.5,386.5C 278.836,386.333 299.169,386.5 319.5,387C 324.176,387.603 328.176,389.436 331.5,392.5C 327.085,390.306 322.418,388.806 317.5,388C 303.837,387.5 290.171,387.333 276.5,387.5C 270.5,387.5 264.5,387.5 258.5,387.5 Z"/></g>
<g><path style="opacity:0.643" fill="#dbbdb3" d="M 180.5,387.5 C 178.485,388.924 176.152,389.59 173.5,389.5C 175.438,387.837 177.772,387.171 180.5,387.5 Z"/></g>
<g><path style="opacity:0.224" fill="#e0cfc2" d="M 173.5,389.5 C 171.819,391.008 169.819,392.008 167.5,392.5C 168.911,390.461 170.911,389.461 173.5,389.5 Z"/></g>
<g><path style="opacity:1" fill="#8e5b46" d="M 242.5,387.5 C 242.833,387.5 243.167,387.5 243.5,387.5C 248.167,387.5 252.833,387.5 257.5,387.5C 257.833,387.5 258.167,387.5 258.5,387.5C 264.5,387.5 270.5,387.5 276.5,387.5C 279.641,388.321 282.975,388.821 286.5,389C 288.489,391.666 291.156,393.333 294.5,394C 297.458,396.601 300.292,399.435 303,402.5C 307.695,412.636 309.862,423.302 309.5,434.5C 320.207,435.096 330.874,435.929 341.5,437C 344.221,439.027 347.221,440.527 350.5,441.5C 351.429,442.689 351.762,444.022 351.5,445.5C 354.012,445.423 356.012,446.423 357.5,448.5C 364.547,458.109 367.547,468.942 366.5,481C 366.355,481.772 366.022,482.439 365.5,483C 378.496,483.5 391.496,483.667 404.5,483.5C 301.335,484.499 198.001,484.833 94.5,484.5C 94.2953,476.133 94.6287,467.8 95.5,459.5C 96.9313,458.22 97.5979,456.553 97.5,454.5C 98.9063,454.027 99.573,453.027 99.5,451.5C 101.262,450.738 102.262,449.404 102.5,447.5C 105.387,446.29 107.72,444.29 109.5,441.5C 111.336,439.412 113.669,438.079 116.5,437.5C 127.723,435.676 139.056,435.009 150.5,435.5C 150.5,429.167 150.5,422.833 150.5,416.5C 152.31,413.855 153.31,410.855 153.5,407.5C 154.34,405.147 155.674,403.147 157.5,401.5C 160.167,399.5 162.5,397.167 164.5,394.5C 165.167,394.5 165.833,394.5 166.5,394.5C 170.259,393.456 173.925,392.122 177.5,390.5C 178.442,390.608 179.275,390.941 180,391.5C 183.603,389.872 187.437,389.038 191.5,389C 208.672,388.832 225.672,388.332 242.5,387.5 Z"/></g>
<g><path style="opacity:1" fill="#93675a" d="M 180.5,387.5 C 201.167,387.5 221.833,387.5 242.5,387.5C 225.672,388.332 208.672,388.832 191.5,389C 187.437,389.038 183.603,389.872 180,391.5C 179.275,390.941 178.442,390.608 177.5,390.5C 173.925,392.122 170.259,393.456 166.5,394.5C 166.833,393.833 167.167,393.167 167.5,392.5C 169.819,392.008 171.819,391.008 173.5,389.5C 176.152,389.59 178.485,388.924 180.5,387.5 Z"/></g>
<g><path style="opacity:0.651" fill="#d1afad" d="M 167.5,392.5 C 167.167,393.167 166.833,393.833 166.5,394.5C 165.833,394.5 165.167,394.5 164.5,394.5C 164.973,393.094 165.973,392.427 167.5,392.5 Z"/></g>
<g><path style="opacity:1" fill="#ab8f85" d="M 331.5,392.5 C 334.891,393.529 337.557,395.529 339.5,398.5C 337.236,397.419 335.069,396.085 333,394.5C 332.667,394.833 332.333,395.167 332,395.5C 331.517,394.552 331.351,393.552 331.5,392.5 Z"/></g>
<g><path style="opacity:0.494" fill="#d8c1b8" d="M 164.5,394.5 C 162.5,397.167 160.167,399.5 157.5,401.5C 158.833,398.167 161.167,395.833 164.5,394.5 Z"/></g>
<g><path style="opacity:1" fill="#7d4f3d" d="M 276.5,387.5 C 290.171,387.333 303.837,387.5 317.5,388C 322.418,388.806 327.085,390.306 331.5,392.5C 331.351,393.552 331.517,394.552 332,395.5C 332.333,395.167 332.667,394.833 333,394.5C 335.069,396.085 337.236,397.419 339.5,398.5C 339.427,400.027 340.094,401.027 341.5,401.5C 341.128,404.022 341.961,406.022 344,407.5C 344.769,410.099 344.602,412.599 343.5,415C 344.449,415.617 345.282,415.451 346,414.5C 347.396,422.08 347.896,429.747 347.5,437.5C 359.904,435.975 372.238,436.309 384.5,438.5C 384.389,439.117 384.056,439.617 383.5,440C 387.363,443.092 391.363,445.925 395.5,448.5C 396.5,448.833 397.167,449.5 397.5,450.5C 397.062,450.435 396.728,450.601 396.5,451C 398.698,454.023 401.031,456.856 403.5,459.5C 404.323,467.471 404.656,475.471 404.5,483.5C 391.496,483.667 378.496,483.5 365.5,483C 366.022,482.439 366.355,481.772 366.5,481C 367.547,468.942 364.547,458.109 357.5,448.5C 356.012,446.423 354.012,445.423 351.5,445.5C 351.762,444.022 351.429,442.689 350.5,441.5C 347.221,440.527 344.221,439.027 341.5,437C 330.874,435.929 320.207,435.096 309.5,434.5C 309.862,423.302 307.695,412.636 303,402.5C 300.292,399.435 297.458,396.601 294.5,394C 291.156,393.333 288.489,391.666 286.5,389C 282.975,388.821 279.641,388.321 276.5,387.5 Z"/></g>
<g><path style="opacity:0.663" fill="#c8ada6" d="M 339.5,398.5 C 340.906,398.973 341.573,399.973 341.5,401.5C 340.094,401.027 339.427,400.027 339.5,398.5 Z"/></g>
<g><path style="opacity:0.863" fill="#c3a89d" d="M 153.5,407.5 C 153.31,410.855 152.31,413.855 150.5,416.5C 150.528,413.084 151.528,410.084 153.5,407.5 Z"/></g>
<g><path style="opacity:0.804" fill="#b79a90" d="M 346.5,409.5 C 347.924,411.515 348.59,413.848 348.5,416.5C 347.076,414.485 346.41,412.152 346.5,409.5 Z"/></g>
<g><path style="opacity:1" fill="#704231" d="M 192.5,414.5 C 202.815,415.131 205.149,419.797 199.5,428.5C 190.871,430.036 187.371,426.369 189,417.5C 190.518,416.837 191.685,415.837 192.5,414.5 Z"/></g>
<g><path style="opacity:0.408" fill="#cdb4ab" d="M 150.5,416.5 C 150.5,422.833 150.5,429.167 150.5,435.5C 139.056,435.009 127.723,435.676 116.5,437.5C 118.277,436.4 120.277,435.566 122.5,435C 131.494,434.5 140.494,434.334 149.5,434.5C 149.177,428.31 149.51,422.31 150.5,416.5 Z"/></g>
<g><path style="opacity:0.439" fill="#c1aba1" d="M 348.5,416.5 C 349.49,422.31 349.823,428.31 349.5,434.5C 358.682,434.173 367.682,434.507 376.5,435.5C 367.167,435.5 357.833,435.5 348.5,435.5C 348.5,429.167 348.5,422.833 348.5,416.5 Z"/></g>
<g><path style="opacity:1" fill="#7f5c4e" d="M 341.5,401.5 C 344.164,403.484 345.831,406.151 346.5,409.5C 346.41,412.152 347.076,414.485 348.5,416.5C 348.5,422.833 348.5,429.167 348.5,435.5C 357.833,435.5 367.167,435.5 376.5,435.5C 378.214,436.738 380.214,437.405 382.5,437.5C 383.492,437.328 384.158,437.662 384.5,438.5C 372.238,436.309 359.904,435.975 347.5,437.5C 347.896,429.747 347.396,422.08 346,414.5C 345.282,415.451 344.449,415.617 343.5,415C 344.602,412.599 344.769,410.099 344,407.5C 341.961,406.022 341.128,404.022 341.5,401.5 Z"/></g>
<g><path style="opacity:0.4" fill="#d2c0ba" d="M 376.5,435.5 C 378.898,435.259 380.898,435.926 382.5,437.5C 380.214,437.405 378.214,436.738 376.5,435.5 Z"/></g>
<g><path style="opacity:1" fill="#704230" d="M 246.5,439.5 C 254.987,438.496 258.487,442.163 257,450.5C 252.668,455.738 248.335,455.738 244,450.5C 243.333,448.167 243.333,445.833 244,443.5C 245.481,442.529 246.315,441.196 246.5,439.5 Z"/></g>
<g><path style="opacity:0.153" fill="#e2d1cb" d="M 388.5,440.5 C 390.027,440.427 391.027,441.094 391.5,442.5C 389.973,442.573 388.973,441.906 388.5,440.5 Z"/></g>
<g><path style="opacity:1" fill="#876356" d="M 384.5,438.5 C 386.153,438.66 387.486,439.326 388.5,440.5C 388.973,441.906 389.973,442.573 391.5,442.5C 393.167,443.5 394.5,444.833 395.5,446.5C 395.5,447.167 395.5,447.833 395.5,448.5C 391.363,445.925 387.363,443.092 383.5,440C 384.056,439.617 384.389,439.117 384.5,438.5 Z"/></g>
<g><path style="opacity:0.796" fill="#b69a90" d="M 109.5,441.5 C 107.72,444.29 105.387,446.29 102.5,447.5C 104.239,444.757 106.573,442.757 109.5,441.5 Z"/></g>
<g><path style="opacity:0.459" fill="#dac2bc" d="M 102.5,447.5 C 102.262,449.404 101.262,450.738 99.5,451.5C 99.7376,449.596 100.738,448.262 102.5,447.5 Z"/></g>
<g><path style="opacity:0.361" fill="#c5b0a4" d="M 395.5,446.5 C 397.587,447.585 398.92,449.251 399.5,451.5C 398.833,451.167 398.167,450.833 397.5,450.5C 397.167,449.5 396.5,448.833 395.5,448.5C 395.5,447.833 395.5,447.167 395.5,446.5 Z"/></g>
<g><path style="opacity:0.216" fill="#eed8d5" d="M 99.5,451.5 C 99.573,453.027 98.9063,454.027 97.5,454.5C 97.427,452.973 98.0937,451.973 99.5,451.5 Z"/></g>
<g><path style="opacity:1" fill="#8f7366" d="M 397.5,450.5 C 398.167,450.833 398.833,451.167 399.5,451.5C 399.427,453.027 400.094,454.027 401.5,454.5C 402.931,455.78 403.598,457.447 403.5,459.5C 401.031,456.856 398.698,454.023 396.5,451C 396.728,450.601 397.062,450.435 397.5,450.5 Z"/></g>
<g><path style="opacity:0.271" fill="#d9cbbf" d="M 399.5,451.5 C 400.906,451.973 401.573,452.973 401.5,454.5C 400.094,454.027 399.427,453.027 399.5,451.5 Z"/></g>
<g><path style="opacity:0.157" fill="#f2e1dd" d="M 97.5,454.5 C 97.5979,456.553 96.9313,458.22 95.5,459.5C 95.4021,457.447 96.0687,455.78 97.5,454.5 Z"/></g>
<g><path style="opacity:1" fill="#704331" d="M 127.5,458.5 C 138.19,458.565 140.856,463.232 135.5,472.5C 127.149,475.213 123.315,472.213 124,463.5C 124.997,461.677 126.164,460.01 127.5,458.5 Z"/></g>
<g><path style="opacity:1" fill="#6e4230" d="M 370.5,459.5 C 377.998,458.83 381.165,462.163 380,469.5C 376.825,473.89 372.992,474.557 368.5,471.5C 366.205,468.022 365.872,464.355 367.5,460.5C 368.791,460.737 369.791,460.404 370.5,459.5 Z"/></g>
<g><path style="opacity:0.471" fill="#d6bbb1" d="M 95.5,459.5 C 94.6287,467.8 94.2953,476.133 94.5,484.5C 94.1667,484.5 93.8333,484.5 93.5,484.5C 93.5,479.5 93.5,474.5 93.5,469.5C 93.1588,465.84 93.8255,462.507 95.5,459.5 Z"/></g>
<g><path style="opacity:0.643" fill="#b8a095" d="M 403.5,459.5 C 405.118,462.171 405.785,465.171 405.5,468.5C 405.5,473.5 405.5,478.5 405.5,483.5C 405.167,483.5 404.833,483.5 404.5,483.5C 404.656,475.471 404.323,467.471 403.5,459.5 Z"/></g>
<g><path style="opacity:0.059" fill="#f0fedf" d="M 93.5,469.5 C 93.5,474.5 93.5,479.5 93.5,484.5C 77.8333,484.5 62.1667,484.5 46.5,484.5C 61.6576,483.504 76.9909,483.17 92.5,483.5C 92.1805,478.637 92.5139,473.97 93.5,469.5 Z"/></g>
<g><path style="opacity:0.061" fill="#f2fddf" d="M 405.5,468.5 C 406.487,473.305 406.821,478.305 406.5,483.5C 422.009,483.17 437.342,483.504 452.5,484.5C 436.833,484.5 421.167,484.5 405.5,484.5C 405.5,484.167 405.5,483.833 405.5,483.5C 405.5,478.5 405.5,473.5 405.5,468.5 Z"/></g>
<g><path style="opacity:0.753" fill="#c5dca1" d="M 46.5,484.5 C 62.1667,484.5 77.8333,484.5 93.5,484.5C 93.8333,484.5 94.1667,484.5 94.5,484.5C 94.5,484.833 94.5,485.167 94.5,485.5C 77.83,485.333 61.1633,485.5 44.5,486C 40.8312,489.861 40.4979,494.027 43.5,498.5C 39.6925,495.565 38.8592,491.899 41,487.5C 42.2635,485.393 44.0968,484.393 46.5,484.5 Z"/></g>
<g><path style="opacity:1" fill="#acae67" d="M 404.5,483.5 C 404.833,483.5 405.167,483.5 405.5,483.5C 405.5,483.833 405.5,484.167 405.5,484.5C 405.5,484.833 405.5,485.167 405.5,485.5C 301.833,485.5 198.167,485.5 94.5,485.5C 94.5,485.167 94.5,484.833 94.5,484.5C 198.001,484.833 301.335,484.499 404.5,483.5 Z"/></g>
<g><path style="opacity:0.753" fill="#c3da9d" d="M 405.5,485.5 C 405.5,485.167 405.5,484.833 405.5,484.5C 421.167,484.5 436.833,484.5 452.5,484.5C 454.933,484.273 456.599,485.273 457.5,487.5C 456.244,487.539 455.244,487.039 454.5,486C 438.17,485.5 421.837,485.333 405.5,485.5 Z"/></g>
<g><path style="opacity:1" fill="#b6d473" d="M 94.5,485.5 C 198.167,485.5 301.833,485.5 405.5,485.5C 421.837,485.333 438.17,485.5 454.5,486C 455.244,487.039 456.244,487.539 457.5,487.5C 457.887,491.444 457.22,495.111 455.5,498.5C 455.5,498.833 455.5,499.167 455.5,499.5C 454.833,499.5 454.167,499.5 453.5,499.5C 452.737,498.732 451.737,498.232 450.5,498C 451.448,497.517 452.448,497.351 453.5,497.5C 455.086,494.729 455.586,491.729 455,488.5C 453.601,487.773 452.101,487.273 450.5,487C 315.5,486.333 180.5,486.333 45.5,487C 43.6431,488.182 42.6431,489.849 42.5,492C 43.7476,494.41 44.7476,496.91 45.5,499.5C 44.8333,499.5 44.1667,499.5 43.5,499.5C 43.5,499.167 43.5,498.833 43.5,498.5C 40.4979,494.027 40.8312,489.861 44.5,486C 61.1633,485.5 77.83,485.333 94.5,485.5 Z"/></g>
<g><path style="opacity:1" fill="#a9d567" d="M 453.5,499.5 C 317.5,499.5 181.5,499.5 45.5,499.5C 44.7476,496.91 43.7476,494.41 42.5,492C 42.6431,489.849 43.6431,488.182 45.5,487C 180.5,486.333 315.5,486.333 450.5,487C 452.101,487.273 453.601,487.773 455,488.5C 455.586,491.729 455.086,494.729 453.5,497.5C 452.448,497.351 451.448,497.517 450.5,498C 451.737,498.232 452.737,498.732 453.5,499.5 Z"/></g>
<g><path style="opacity:0.937" fill="#cbdfab" d="M 457.5,487.5 C 460.192,491.762 459.525,495.428 455.5,498.5C 457.22,495.111 457.887,491.444 457.5,487.5 Z"/></g>
</svg>
